<?xml version="1.0" encoding="iso-8859-1"?>
<!-- Generator: Adobe Illustrator 18.0.0, SVG Export Plug-In . SVG Version: 6.00 Build 0)  -->
<!DOCTYPE svg PUBLIC "-//W3C//DTD SVG 1.1//EN" "http://www.w3.org/Graphics/SVG/1.1/DTD/svg11.dtd">
<svg xmlns="http://www.w3.org/2000/svg" xmlns:xlink="http://www.w3.org/1999/xlink" version="1.1" id="Capa_1" x="0px" y="0px" viewBox="0 0 452.805 452.805" style="enable-background:new 0 0 452.805 452.805;" xml:space="preserve" width="512px" height="512px">
<g>
	<g>
		<path d="M254.467,135c-5.523,0-10-4.477-10-10c0-34.777-28.294-63.07-63.072-63.07c-34.777,0-63.07,28.293-63.07,63.07    c0,5.523-4.477,10-10,10c-5.523,0-10-4.477-10-10c0-45.805,37.265-83.07,83.07-83.07c45.806,0,83.072,37.265,83.072,83.07    C264.467,130.523,259.99,135,254.467,135z" fill="#FFFFFF"/>
	</g>
	<g>
		<path d="M291.246,169.143c-0.983,0-1.981-0.146-2.969-0.453c-5.274-1.638-8.222-7.242-6.583-12.516    c3.12-10.044,4.702-20.533,4.702-31.174c0-57.897-47.103-105-105-105s-105,47.103-105,105c0,10.635,1.582,21.124,4.703,31.176    c1.638,5.274-1.311,10.878-6.586,12.515c-5.274,1.64-10.877-1.311-12.515-6.586c-3.717-11.973-5.602-24.457-5.602-37.105    c0-68.925,56.075-125,125-125s125,56.075,125,125c0,12.655-1.885,25.14-5.602,37.107    C299.461,166.393,295.51,169.143,291.246,169.143z" fill="#FFFFFF"/>
	</g>
	<g>
		<path d="M182.572,104.389c12.401,0,24.246,9.514,24.246,21.188c0.008,0.045-0.064,89.86-0.076,111.957    c-0.001,0.046-0.014,0.089-0.014,0.135v4.617c0,2.201,1.785,3.985,3.986,3.985c2.2,0,3.984-1.784,3.984-3.985v-1.194    c0.217-13.328,11.082-24.067,24.463-24.067c13.515,0,24.472,10.957,24.472,24.473l0.019,17.721c0,2.168,1.757,3.925,3.925,3.925    c2.167,0,3.923-1.757,3.923-3.925l-0.008-1.014c0-12.305,11.957-20.894,24.256-20.894c13.517,0,24.422,10.956,24.422,24.472    l0.049,17.937c0,2.109,1.71,3.819,3.819,3.819c2.109,0,3.818-1.71,3.818-3.819l-0.014-1.365c0-11.19,12.108-19.771,24.017-19.771    c13.514,0,24.472,10.957,24.472,24.472l0.078,44.96c0,41.815-16.262,104.791-116.37,104.791    c-119.309,0-135.216-60.478-133.383-125.643c0.442-15.718,13.954-25,25-25v28.822c0,3.625,2.514,4.047,3.264,4.047    s3.18-0.411,3.18-4.038c0-3.499,0-182.132,0-182.132C158.101,115.346,169.057,104.389,182.572,104.389 M182.572,84.389    c-24.521,0-44.471,19.95-44.471,44.472v135.57c-16.375,5.479-30.829,20.592-31.436,42.168    c-0.95,33.752,1.817,76.462,31.894,107.397c25.39,26.115,65.127,38.809,121.481,38.809c50.684,0,88.169-14.908,111.414-44.311    c16.326-20.651,24.956-48.48,24.956-80.48l-0.078-44.995c0-24.487-19.95-44.437-44.472-44.437c-5.573,0-11.219,1.072-16.508,3.065    c-7.351-14.431-22.343-24.338-39.604-24.338c-6.153,0-12.015,1.166-17.344,3.271c-7.494-14.005-22.274-23.558-39.244-23.558    c-4.251,0-8.414,0.594-12.393,1.743c0.003-4.148,0.006-8.402,0.009-12.671l0.03-41.446c0.007-11.29,0.011-16.443-0.036-19.073    h0.045C226.817,103.25,206.555,84.389,182.572,84.389L182.572,84.389z" fill="#FFFFFF"/>
	</g>
</g>
<g>
</g>
<g>
</g>
<g>
</g>
<g>
</g>
<g>
</g>
<g>
</g>
<g>
</g>
<g>
</g>
<g>
</g>
<g>
</g>
<g>
</g>
<g>
</g>
<g>
</g>
<g>
</g>
<g>
</g>
</svg>
